<svg width="21" height="21" viewBox="0 0 21 21" fill="none" xmlns="http://www.w3.org/2000/svg">
<path fill-rule="evenodd" clip-rule="evenodd" d="M9.52988 0C9.69812 0 9.86486 0.00639146 10.0299 0.0189448V2.02746C9.86572 2.00932 9.69889 2 9.52988 2C7.21361 2 5.30607 3.75002 5.05735 6H3.04883C3.30414 2.64378 6.10827 0 9.52988 0Z" fill="black"/>
<path d="M4.04883 6V10" stroke="black" stroke-width="2"/>
<path d="M4.04885 10C4.04885 10.6315 3.95913 11.9509 3.60968 12.4283C3.57264 12.4789 3.53259 12.5272 3.50015 12.5809C3.4164 12.7194 3.32135 12.8742 3.22091 13.0344C2.90266 13.5423 1.21888 15.7609 1.07231 16.342V16.342C1.03302 16.4978 0.941483 16.611 1.0626 16.7165C1.22757 16.8603 1.75395 17 3.04885 17M3.04885 17C5.04885 17 3.8822 17 3.04885 17ZM3.04885 17H10.0488" stroke="black" stroke-width="2"/>
<path fill-rule="evenodd" clip-rule="evenodd" d="M10.5678 0C10.3995 0 10.2328 0.00639146 10.0678 0.0189448V2.02746C10.2319 2.00932 10.3988 2 10.5678 2C12.884 2 14.7916 3.75002 15.0403 6H17.0488C16.7935 2.64378 13.9894 0 10.5678 0Z" fill="black"/>
<path d="M16.0488 6V10" stroke="black" stroke-width="2"/>
<path d="M16.0488 10C16.0488 10.6315 16.1385 11.9509 16.488 12.4283C16.525 12.4789 16.5651 12.5272 16.5975 12.5809C16.6813 12.7194 16.7763 12.8742 16.8767 13.0344C17.195 13.5423 18.8788 15.7609 19.0253 16.342V16.342C19.0646 16.4978 19.1562 16.611 19.0351 16.7165C18.8701 16.8603 18.3437 17 17.0488 17M17.0488 17C15.0488 17 16.2155 17 17.0488 17ZM17.0488 17H10.0488" stroke="black" stroke-width="2"/>
<path d="M9.5 1H10.5" stroke="black" stroke-width="2"/>
<path fill-rule="evenodd" clip-rule="evenodd" d="M6.1748 18C6.61885 19.7252 8.18495 21 10.0488 21C11.9126 21 13.4787 19.7252 13.9228 18H11.7812C11.4354 18.5978 10.7891 19 10.0488 19C9.3085 19 8.66216 18.5978 8.31635 18H6.1748Z" fill="black"/>
</svg>
