<svg width="107" height="50" viewBox="0 0 107 50" fill="none" xmlns="http://www.w3.org/2000/svg">
<g clip-path="url(#clip0_968_4282)">
<g clip-path="url(#clip1_968_4282)">
<rect x="45.1011" y="13" width="15" height="12" rx="2" fill="black"/>
<path d="M49.9807 27.6374C49.0109 28.4186 47.5666 27.7463 47.54 26.5013L47.4668 23.0748C47.4431 21.9643 48.5925 21.2141 49.5995 21.6828L52.3417 22.9593C53.3487 23.428 53.5147 24.7905 52.6497 25.4873L49.9807 27.6374Z" fill="black"/>
<path fill-rule="evenodd" clip-rule="evenodd" d="M51.1011 9C49.4442 9 48.1011 10.3431 48.1011 12V12.1707C48.4139 12.0602 48.7504 12 49.1011 12H58.1011C59.7579 12 61.1011 13.3431 61.1011 15V21.8293C62.2663 21.4175 63.1011 20.3062 63.1011 19V12C63.1011 10.3431 61.7579 9 60.1011 9H51.1011Z" fill="black"/>
<circle cx="48.1011" cy="19" r="1" fill="white"/>
<circle cx="52.1011" cy="19" r="1" fill="white"/>
<circle cx="56.1011" cy="19" r="1" fill="white"/>
</g>
<path d="M52.6879 40.63H52.0129V36.526H51.0859V40.234H50.4199V32.953H51.0859V35.959H52.0129V32.764H52.6879V40.63ZM49.8799 35.365H48.3679V35.563C48.3679 36.229 48.5269 36.808 48.8449 37.3C49.1689 37.786 49.5589 38.149 50.0149 38.389L49.6099 38.902C49.2679 38.692 48.9409 38.401 48.6289 38.029C48.3169 37.651 48.1129 37.279 48.0169 36.913C47.9269 37.321 47.7289 37.729 47.4229 38.137C47.1169 38.545 46.7749 38.866 46.3969 39.1L45.9919 38.641C46.4839 38.335 46.8859 37.921 47.1979 37.399C47.5159 36.877 47.6749 36.271 47.6749 35.581V35.365H46.1449V34.789H49.8799V35.365ZM46.9639 34.033V33.439H49.0339V34.033H46.9639ZM60.322 39.145C60.322 39.595 60.091 39.949 59.629 40.207C59.167 40.465 58.516 40.594 57.676 40.594C56.842 40.594 56.194 40.465 55.732 40.207C55.276 39.949 55.048 39.595 55.048 39.145C55.048 38.689 55.276 38.332 55.732 38.074C56.194 37.81 56.842 37.678 57.676 37.678C58.516 37.678 59.167 37.81 59.629 38.074C60.091 38.332 60.322 38.689 60.322 39.145ZM60.268 32.764V37.66H59.584V32.764H60.268ZM59.593 39.145C59.593 38.863 59.425 38.644 59.089 38.488C58.753 38.332 58.282 38.254 57.676 38.254C57.082 38.254 56.617 38.335 56.281 38.497C55.945 38.653 55.777 38.869 55.777 39.145C55.777 39.421 55.945 39.637 56.281 39.793C56.617 39.943 57.082 40.018 57.676 40.018C58.282 40.018 58.753 39.943 59.089 39.793C59.425 39.637 59.593 39.421 59.593 39.145ZM58.702 36.346L58.774 36.913C57.802 37.057 56.536 37.129 54.976 37.129H54.247V33.304H57.919V33.871H54.931V34.87H57.838V35.428H54.931V36.553H55.183C56.719 36.553 57.892 36.484 58.702 36.346Z" fill="black"/>
</g>
<defs>
<clipPath id="clip0_968_4282">
<rect width="107" height="50" fill="white"/>
</clipPath>
<clipPath id="clip1_968_4282">
<rect width="24" height="24" fill="white" transform="translate(41.5 6)"/>
</clipPath>
</defs>
</svg>
