<svg width="107" height="50" viewBox="0 0 107 50" fill="none" xmlns="http://www.w3.org/2000/svg">
<g clip-path="url(#clip0_968_4279)">
<rect x="45.5" y="9" width="5" height="5" rx="1" fill="#C8C8C8"/>
<rect x="45.5" y="15" width="5" height="5" rx="1" fill="#C8C8C8"/>
<rect x="45.5" y="21" width="5" height="5" rx="1" fill="#C8C8C8"/>
<path d="M51.5 12H60.5" stroke="#C8C8C8" stroke-linecap="round"/>
<path d="M52 18H61" stroke="#C8C8C8" stroke-linecap="round"/>
<path d="M52 24H61" stroke="#C8C8C8" stroke-linecap="round"/>
<path d="M55.9964 35.734C55.9964 36.04 55.8224 36.289 55.4744 36.481C55.1264 36.667 54.6164 36.778 53.9444 36.814V37.246H57.1214V37.993H49.8764V37.246H53.0264V36.814C52.3664 36.772 51.8654 36.658 51.5234 36.472C51.1814 36.286 51.0104 36.04 51.0104 35.734C51.0104 35.386 51.2204 35.116 51.6404 34.924C52.0664 34.726 52.6874 34.627 53.5034 34.627C54.3194 34.627 54.9374 34.726 55.3574 34.924C55.7834 35.116 55.9964 35.386 55.9964 35.734ZM56.1854 40.648H50.8034V38.362H56.1854V40.648ZM56.6714 34.411H50.3264V33.7H56.6714V34.411ZM55.2674 39.964V39.064H51.7304V39.964H55.2674ZM55.0514 35.734C55.0514 35.434 54.5354 35.284 53.5034 35.284C52.4654 35.284 51.9464 35.434 51.9464 35.734C51.9464 36.028 52.4654 36.175 53.5034 36.175C54.5354 36.175 55.0514 36.028 55.0514 35.734ZM52.0994 33.367V32.656H54.9074V33.367H52.0994Z" fill="#C8C8C8"/>
</g>
<defs>
<clipPath id="clip0_968_4279">
<rect width="107" height="50" fill="white"/>
</clipPath>
</defs>
</svg>
