<svg width="107" height="50" viewBox="0 0 107 50" fill="none" xmlns="http://www.w3.org/2000/svg">
<g clip-path="url(#clip0_968_4287)">
<g clip-path="url(#clip1_968_4287)">
<circle cx="53.0026" cy="16.0211" r="4.02111" fill="black"/>
<path fill-rule="evenodd" clip-rule="evenodd" d="M60.9871 28H45C45.4428 23.9772 48.8527 20.8477 52.9935 20.8477C57.1344 20.8477 60.5443 23.9772 60.9871 28Z" fill="black"/>
</g>
<path d="M48.5873 37.462H42.7913V36.886H44.0783L43.8623 34.69L44.5643 34.591L44.7263 36.886H46.6613L46.9403 34.6L47.6153 34.708L47.3003 36.886H48.5873V37.462ZM49.2623 39.586H42.1613V39.001H49.2623V39.586ZM48.5963 34.168H42.7823V33.592H48.5963V34.168ZM57.0495 39.631H49.9485V39.055H53.1435V37.714H50.8215V35.257H55.4835V33.997H50.8125V33.421H56.1675V35.824H51.5055V37.138H56.3925V37.714H53.8275V39.055H57.0495V39.631ZM64.4586 40.576H59.1306V38.623H63.4866V37.849H59.1036V37.291H64.1706V39.145H59.8146V40.009H64.4586V40.576ZM62.7126 35.86L62.7756 36.391C62.3556 36.457 61.5666 36.526 60.4086 36.598C59.4846 36.646 58.6656 36.67 57.9516 36.67L57.8526 36.085C58.3386 36.085 58.7016 36.082 58.9416 36.076L58.7436 34.294L59.4366 34.213L59.5626 36.067C59.8026 36.061 60.1356 36.046 60.5616 36.022C60.6516 36.022 60.7206 36.019 60.7686 36.013L60.9036 34.195L61.5786 34.276L61.3806 35.986C61.9506 35.956 62.3946 35.914 62.7126 35.86ZM64.1616 36.904H63.4776V32.764H64.1616V36.904ZM62.3436 33.835H58.0686V33.277H62.3436V33.835Z" fill="black"/>
</g>
<defs>
<clipPath id="clip0_968_4287">
<rect width="107" height="50" fill="white"/>
</clipPath>
<clipPath id="clip1_968_4287">
<rect width="24" height="24" fill="white" transform="translate(41.5 6)"/>
</clipPath>
</defs>
</svg>
