<svg width="107" height="51" viewBox="0 0 107 51" fill="none" xmlns="http://www.w3.org/2000/svg">
<g clip-path="url(#clip0_838_5819)">
<circle cx="53.5026" cy="14.2213" r="4.02111" fill="#D9D9D9"/>
<path fill-rule="evenodd" clip-rule="evenodd" d="M61.5051 26.2863H45.5C45.9033 22.2221 49.3322 19.0479 53.5026 19.0479C57.6729 19.0479 61.1018 22.2221 61.5051 26.2863Z" fill="#D9D9D9"/>
<path d="M48.5873 37.6622H42.7913V37.0862H44.0783L43.8623 34.8902L44.5643 34.7912L44.7263 37.0862H46.6613L46.9403 34.8002L47.6153 34.9082L47.3003 37.0862H48.5873V37.6622ZM49.2623 39.7862H42.1613V39.2012H49.2623V39.7862ZM48.5963 34.3682H42.7823V33.7922H48.5963V34.3682ZM57.0495 39.8312H49.9485V39.2552H53.1435V37.9142H50.8215V35.4572H55.4835V34.1972H50.8125V33.6212H56.1675V36.0242H51.5055V37.3382H56.3925V37.9142H53.8275V39.2552H57.0495V39.8312ZM64.4586 40.7762H59.1306V38.8232H63.4866V38.0492H59.1036V37.4912H64.1706V39.3452H59.8146V40.2092H64.4586V40.7762ZM62.7126 36.0602L62.7756 36.5912C62.3556 36.6572 61.5666 36.7262 60.4086 36.7982C59.4846 36.8462 58.6656 36.8702 57.9516 36.8702L57.8526 36.2852C58.3386 36.2852 58.7016 36.2822 58.9416 36.2762L58.7436 34.4942L59.4366 34.4132L59.5626 36.2672C59.8026 36.2612 60.1356 36.2462 60.5616 36.2222C60.6516 36.2222 60.7206 36.2192 60.7686 36.2132L60.9036 34.3952L61.5786 34.4762L61.3806 36.1862C61.9506 36.1562 62.3946 36.1142 62.7126 36.0602ZM64.1616 37.1042H63.4776V32.9642H64.1616V37.1042ZM62.3436 34.0352H58.0686V33.4772H62.3436V34.0352Z" fill="#C8C8C8"/>
</g>
<defs>
<clipPath id="clip0_838_5819">
<rect width="107" height="50" fill="white" transform="translate(0 0.200195)"/>
</clipPath>
</defs>
</svg>
