<svg width="16" height="16" viewBox="0 0 16 16" fill="none" xmlns="http://www.w3.org/2000/svg">
<path d="M7.52447 2.46352C7.67415 2.00287 8.32585 2.00287 8.47553 2.46353L9.45934 5.49139C9.52628 5.6974 9.71826 5.83688 9.93487 5.83688H13.1186C13.6029 5.83688 13.8043 6.45669 13.4124 6.74139L10.8368 8.61271C10.6615 8.74003 10.5882 8.96572 10.6552 9.17173L11.639 12.1996C11.7886 12.6602 11.2614 13.0433 10.8695 12.7586L8.29389 10.8873C8.11865 10.76 7.88135 10.76 7.70611 10.8873L5.13045 12.7586C4.73859 13.0433 4.21136 12.6602 4.36103 12.1996L5.34484 9.17173C5.41178 8.96572 5.33845 8.74003 5.16321 8.61271L2.58755 6.74139C2.1957 6.45669 2.39708 5.83688 2.88145 5.83688H6.06513C6.28174 5.83688 6.47372 5.6974 6.54066 5.49139L7.52447 2.46352Z" fill="#FDBD39"/>
</svg>
