<svg width="69" height="69" viewBox="0 0 69 69" fill="none" xmlns="http://www.w3.org/2000/svg">
<circle cx="29.5" cy="28.5" r="28.5" fill="white"/>
<path fill-rule="evenodd" clip-rule="evenodd" d="M52.288 45.5934C55.9472 40.8204 58.12 34.8603 58.12 28.3956C58.12 12.7131 45.3333 0 29.56 0C13.7867 0 1 12.7131 1 28.3956C1 34.8602 3.17276 40.8202 6.83182 45.5932C9.84712 38.3712 18.8824 33.1281 29.5599 33.1281C40.2375 33.1281 49.2728 38.3713 52.288 45.5934Z" fill="#DDE0E5"/>
<circle cx="30.5" cy="20.5" r="12.5" fill="white"/>
<path d="M64.5 47.5C64.5 53.5553 59.3715 58.5 53 58.5C46.6285 58.5 41.5 53.5553 41.5 47.5C41.5 41.4447 46.6285 36.5 53 36.5C59.3715 36.5 64.5 41.4447 64.5 47.5Z" fill="white" stroke="#D9D9D9"/>
<rect x="46" y="44" width="14" height="9" rx="2" fill="#D9D9D9"/>
<rect x="51" y="43" width="5" height="4" rx="2" fill="#D9D9D9"/>
<ellipse cx="53" cy="48.5" rx="2" ry="1.5" fill="white"/>
</svg>
